Coordinates
version=1
nRows=14
nColumns=24
inDegrees=yes

Units are S.I. units (second, meters, Newtons, ...)
Angles are in degrees.

endheader
time	pelvis_tilt	pelvis_list	pelvis_rotation	pelvis_tx	pelvis_ty	pelvis_tz	hip_flexion_r	hip_adduction_r	hip_rotation_r	knee_angle_r	ankle_angle_r	subtalar_angle_r	mtp_angle_r	hip_flexion_l	hip_adduction_l	hip_rotation_l	knee_angle_l	ankle_angle_l	subtalar_angle_l	mtp_angle_l	lumbar_extension	lumbar_bending	lumbar_rotation
      0.70400000	     -3.47392423	      3.60705239	      8.47989974	     -0.00315322	      0.97242493	      0.28430740	     35.49080839	     -9.14085744	    -10.97308783	     -6.85612570	      6.49066835	     -7.55501158	     -0.61154832	    -17.59058589	      3.32427006	      2.22123600	     -3.68521206	     12.21504338	     -8.10885263	     -0.06163132	     -7.93876667	     -0.50310313	     -1.80302077
      0.70816667	     -3.31755700	      3.50416691	      8.62435198	      0.00259385	      0.97173767	      0.28432181	     35.10983126	     -9.11167568	    -11.32556426	     -7.30575911	      6.55267863	     -7.38960588	     -1.35946126	    -17.99821030	      3.07456814	      2.35933467	     -3.85575674	     12.17549569	     -8.08912561	     -0.35109692	     -8.09290605	     -0.21352623	     -1.89124131
      0.71233333	     -3.37581139	      3.48238631	      8.59745425	      0.00840362	      0.97055109	      0.28480961	     35.05422666	     -9.05985667	    -11.36463902	     -7.87811866	      6.62074938	     -7.32078211	     -1.45607178	    -18.18317097	      2.97661162	      2.29763281	     -4.06274022	     12.13879555	     -8.01364594	     -0.38646184	     -8.01257745	     -0.09216429	     -1.83572516
      0.71650000	     -3.39726123	      3.42317871	      8.62012682	      0.01427945	      0.96949943	      0.28518608	     34.92222338	     -9.00252198	    -11.52928501	     -8.41274908	      6.58061228	     -7.22847178	     -1.60935827	    -18.39214654	      2.81969392	      2.24892877	     -4.28967194	     12.13527876	     -7.86049652	     -0.43067570	     -7.94817168	      0.07313488	     -1.73046435
      0.72066667	     -3.39215832	      3.33042386	      8.64645058	      0.02020439	      0.96853370	      0.28556541	     34.73865375	     -8.90714346	    -11.70038845	     -8.90877289	      6.49863596	     -7.19008187	     -1.76395364	    -18.62449608	      2.62136499	      2.20026464	     -4.51299891	     12.07831829	     -7.74162631	     -0.46259164	     -7.91372661	      0.29537893	     -1.68087336
      0.72483333	     -3.44904456	      3.30049821	      8.63907366	      0.02606390	      0.96746693	      0.28607871	     34.65481818	     -8.85037677	    -11.77361410	     -9.44026481	      6.37008750	     -7.23032809	     -1.78283516	    -18.78596050	      2.50815213	      2.18952037	     -4.75856407	     11.97110165	     -7.73010800	     -0.46495899	     -7.85005623	      0.41371480	     -1.66466598
      0.72900000	     -3.36991902	      3.12631181	      8.69894351	      0.03208710	      0.96674276	      0.28638531	     34.33478930	     -8.68543106	    -12.04879660	     -9.82142772	      6.15520064	     -7.20399532	     -1.91205532	    -19.06235677	      2.20267195	      2.10744091	     -5.02545701	     11.90757456	     -7.55768217	     -0.45183342	     -7.88367168	      0.76464938	     -1.57452747
      0.73316667	     -3.37423801	      2.99686151	      8.69889851	      0.03812946	      0.96588436	      0.28684472	     34.13731586	     -8.52995123	    -12.22195188	    -10.21364673	      5.84295937	     -7.26991235	     -1.98704066	    -19.27256902	      1.97569165	      2.05486020	     -5.25800869	     11.75298208	     -7.49458096	     -0.42202995	     -7.82616701	      1.02509891	     -1.53850684
      0.73733333	     -3.41088459	      2.89230963	      8.69283932	      0.04410890	      0.96501769	      0.28734484	     33.98866714	     -8.39778728	    -12.36816124	    -10.59383078	      5.46045124	     -7.30280639	     -2.01739334	    -19.42414973	      1.78262248	      2.00872619	     -5.53447147	     11.55421963	     -7.44311167	     -0.39494941	     -7.77021140	      1.25263426	     -1.48494651
      0.74150000	     -3.27003935	      2.67926849	      8.68836646	      0.05018300	      0.96453064	      0.28785354	     33.58982595	     -8.12798078	    -12.58936597	    -10.82384570	      4.96008844	     -7.51081682	     -2.06459778	    -19.73933515	      1.44161980	      1.83583394	     -5.83091355	     11.40427226	     -7.28544916	     -0.27131129	     -7.87818610	      1.63453423	     -1.42191854
      0.74566667	     -3.33115441	      2.52013130	      8.66518873	      0.05626843	      0.96374802	      0.28835188	     33.45777741	     -7.93653417	    -12.77202535	    -11.11374628	      4.41514094	     -7.63480705	     -2.07180364	    -19.84507262	      1.20872425	      1.76737231	     -6.13512781	     11.17822428	     -7.30662519	     -0.20697870	     -7.75236285	      1.92546148	     -1.33782296
      0.74983333	     -3.21216996	      2.29080073	      8.60457941	      0.06233005	      0.96333686	      0.28901713	     33.09864613	     -7.61020468	    -12.91265629	    -11.26297388	      3.69036844	     -7.94446406	     -2.04312360	    -20.10781191	      0.87186881	      1.53927894	     -6.47406968	     10.94548310	     -7.16135817	     -0.00890083	     -7.86429484	      2.31676943	     -1.24117257
      0.75400000	     -3.18628596	      2.06955659	      8.53022598	      0.06842412	      0.96283034	      0.28966864	     32.86571732	     -7.30448249	    -13.05106635	    -11.42879333	      2.91478097	     -8.23043024	     -1.97958917	    -20.26349593	      0.57180167	      1.33972963	     -6.83518576	     10.67816312	     -7.10264152	      0.22942431	     -7.85615752	      2.68664962	     -1.11339820
      0.75816667	     -3.19482863	      1.83789596	      8.44579956	      0.07452176	      0.96234831	      0.29034092	     32.67821640	     -6.98696041	    -13.16706154	    -11.57620940	      2.09055745	     -8.54800127	     -1.90254486	    -20.35842420	      0.27450838	      1.13464320	     -7.23827194	     10.35989793	     -7.11673561	      0.45837896	     -7.80933345	      3.06552661	     -0.97252859
